<?xml version="1.0" encoding="UTF-8"?> <!-- Generator: Adobe Illustrator 21.0.0, SVG Export Plug-In . SVG Version: 6.00 Build 0) --> <svg xmlns="http://www.w3.org/2000/svg" xmlns:xlink="http://www.w3.org/1999/xlink" id="Слой_1" x="0px" y="0px" viewBox="0 0 1000 1000" style="enable-background:new 0 0 1000 1000;" xml:space="preserve"> <style type="text/css"> .st0{fill:#BAAA91;} .st1{fill:#FFFFFF;} </style> <circle class="st0" cx="500.2" cy="497.7" r="491.3"></circle> <g> <path class="st1" d="M337.9,752.1c0,4.8,3.9,8.8,8.8,8.8H566c4.8,0,8.8-3.9,8.8-8.8V717h105.3c4.8,0,8.8-3.9,8.8-8.8V603h52.6 c2.6,0,5.2-1.2,6.8-3.3c1.7-2.1,2.3-4.8,1.8-7.4l-26.1-121.9c-0.3-66.9-29-130.9-78.9-175.6c-50.9-45.5-116.6-66.4-185-58.8 c-109.9,12.2-197.6,101-208.6,211c-5.7,57.4,9.3,114.7,42.4,161.2C322.7,648.9,337.9,698.6,337.9,752.1z M268.9,448.8 c10.2-101.9,91.3-184.1,193-195.4c63.4-7,124.3,12.3,171.4,54.5c46.5,41.6,73.1,101.2,73.1,163.5c0,0.6,0.1,1.2,0.2,1.8l24,112.2 h-50.6c-4.8,0-8.8,3.9-8.8,8.8v105.3H566h-35.1V717h26.3v26.3H355.4c-1.6-53.8-17.8-103.8-47.2-145.2 C277.5,555,263.6,502,268.9,448.8L268.9,448.8z"></path> <path class="st1" d="M538.2,486.5l-6.5-15.6c1.4-2.9,2.6-5.9,3.7-9l15.7-6.4c2.9-1.2,5-3.9,5.4-7c0.6-4.6,0.8-8.5,0.8-12.2 c0-3.8-0.3-7.6-0.8-12.2c-0.4-3.1-2.5-5.8-5.4-7l-15.7-6.4c-1.1-3.1-2.3-6.1-3.7-9l6.5-15.6c1.2-2.9,0.8-6.3-1.2-8.8 c-5-6.5-10.8-12.3-17.3-17.3c-2.5-1.9-5.9-2.4-8.8-1.2l-15.6,6.5c-2.9-1.4-5.9-2.6-9-3.7L480,346c-1.2-2.9-3.9-5-7-5.4 c-9.1-1.2-15.3-1.2-24.4,0c-3.1,0.4-5.8,2.5-7,5.4l-6.4,15.7c-3.1,1.1-6.1,2.3-9,3.7l-15.6-6.5c-2.9-1.2-6.3-0.8-8.8,1.2 c-6.5,5-12.3,10.8-17.3,17.3c-1.9,2.5-2.4,5.8-1.2,8.8l6.5,15.6c-1.4,2.9-2.6,5.9-3.7,9l-15.7,6.4c-2.9,1.2-5,3.9-5.4,7 c-0.6,4.6-0.8,8.5-0.8,12.2c0,3.8,0.3,7.6,0.8,12.2c0.4,3.1,2.5,5.8,5.4,7l15.7,6.4c1.1,3.1,2.3,6.1,3.7,9l-6.5,15.6 c-1.2,2.9-0.8,6.3,1.2,8.8c5,6.5,10.8,12.3,17.3,17.3c2.5,1.9,5.9,2.4,8.8,1.2l15.6-6.5c2.9,1.4,5.9,2.6,9,3.7l6.4,15.7 c1.2,2.9,3.9,5,7,5.4c4.6,0.6,8.5,0.8,12.2,0.8s7.7-0.3,12.2-0.8c3.1-0.4,5.8-2.5,7-5.4l6.4-15.7c3.1-1.1,6.1-2.3,9-3.7l15.6,6.5 c2.9,1.2,6.3,0.8,8.8-1.2c6.5-5,12.3-10.8,17.3-17.3C539,492.7,539.4,489.4,538.2,486.5L538.2,486.5z M524.9,447.3 c-2.5,1-4.4,3.1-5.1,5.7c-1.3,4.7-3.2,9.1-5.5,13.2c-1.3,2.4-1.5,5.2-0.4,7.7l6.1,14.5c-2.2,2.5-4.6,4.9-7.1,7.1l-14.5-6.1 c-2.5-1-5.3-0.9-7.7,0.4c-4.1,2.3-8.5,4.1-13.2,5.5c-2.6,0.7-4.7,2.6-5.7,5.1l-6,14.6c-3.5,0.3-6.5,0.3-10,0l-6-14.6 c-1-2.5-3.1-4.4-5.7-5.1c-4.7-1.3-9.1-3.2-13.2-5.5c-2.4-1.3-5.2-1.5-7.7-0.4l-14.5,6.1c-2.5-2.2-4.9-4.6-7.1-7.1l6.1-14.5 c1-2.5,0.9-5.3-0.4-7.7c-2.3-4.1-4.1-8.5-5.5-13.2c-0.7-2.6-2.6-4.7-5.1-5.7l-14.6-6c-0.1-1.8-0.2-3.4-0.2-5s0.1-3.2,0.2-5l14.6-6 c2.5-1,4.4-3.1,5.1-5.7c1.3-4.7,3.2-9.1,5.5-13.2c1.3-2.4,1.5-5.2,0.4-7.7l-6.1-14.5c2.2-2.5,4.6-4.9,7.1-7.1l14.5,6.1 c2.5,1,5.3,0.9,7.7-0.4c4.1-2.3,8.5-4.1,13.2-5.5c2.6-0.7,4.7-2.6,5.7-5.1l6-14.6c3.5-0.3,6.5-0.3,10,0l6,14.6 c1,2.5,3.1,4.4,5.7,5.1c4.7,1.3,9.1,3.2,13.2,5.5c2.3,1.3,5.2,1.5,7.7,0.4l14.5-6.1c2.5,2.2,4.9,4.6,7.1,7.1l-6.1,14.5 c-1,2.5-0.9,5.3,0.4,7.7c2.3,4.1,4.1,8.5,5.5,13.2c0.7,2.6,2.6,4.7,5.1,5.7l14.6,6c0.1,1.8,0.2,3.4,0.2,5s-0.1,3.2-0.2,5 L524.9,447.3z"></path> <path class="st1" d="M460.8,392.4c-24.2,0-43.9,19.7-43.9,43.9s19.7,43.9,43.9,43.9c24.2,0,43.9-19.7,43.9-43.9 S484.9,392.4,460.8,392.4z M460.8,462.6c-14.5,0-26.3-11.8-26.3-26.3s11.8-26.3,26.3-26.3c14.5,0,26.3,11.8,26.3,26.3 S475.3,462.6,460.8,462.6z"></path> <path class="st1" d="M533.6,535.2l10.4,14.1c10-7.4,19.1-16.1,26.8-25.9l-13.7-10.9C550.3,521.1,542.3,528.7,533.6,535.2 L533.6,535.2z"></path> <path class="st1" d="M335.8,500.2l15.6-8c-3.8-7.4-6.8-15.2-9-23.1c-2.9-10.6-4.4-21.6-4.4-32.8c0-67.7,55.1-122.8,122.8-122.8 h66.5L516,324.8l12.4,12.4l26.3-26.3c3.4-3.4,3.4-9,0-12.4l-26.3-26.3L516,284.6l11.3,11.3h-66.5c-77.4,0-140.4,63-140.4,140.4 c0,12.7,1.7,25.3,5,37.4C328,482.8,331.4,491.7,335.8,500.2L335.8,500.2z"></path> <path class="st1" d="M596.1,473.7l-16.9-4.7c-2.9,10.5-7.2,20.6-12.8,30l15.1,9C587.8,497.3,592.7,485.7,596.1,473.7z"></path> <path class="st1" d="M359.8,506.2l-14.4,10c7.1,10.3,15.6,19.5,25.1,27.6l11.3-13.4C373.4,523.3,366,515.2,359.8,506.2z"></path> <path class="st1" d="M489.3,555.8l4.1,17.1c12.1-2.9,23.9-7.4,34.8-13.4l-8.4-15.4C510.2,549.3,499.9,553.2,489.3,555.8 L489.3,555.8z"></path> <path class="st1" d="M385.6,554.8c10.6,6.7,22,12,33.9,15.6l5.2-16.8c-10.4-3.2-20.4-7.8-29.6-13.7L385.6,554.8z"></path> <path class="st1" d="M475,575.9l-1.8-17.5c-4.1,0.4-8.2,0.6-12.3,0.6c-6.8,0.3-13.7-0.6-20.3-1.7l-2.9,17.3 c7.6,1.3,15.7,1.8,23.2,1.9C465.6,576.6,470.3,576.4,475,575.9L475,575.9z"></path> <path class="st1" d="M425.7,699.4h17.5V717h-17.5V699.4z"></path> <path class="st1" d="M460.8,699.4h17.5V717h-17.5V699.4z"></path> <path class="st1" d="M495.8,699.4h17.5V717h-17.5V699.4z"></path> </g> </svg> 