<?xml version="1.0" encoding="UTF-8"?> <!-- Generator: Adobe Illustrator 21.0.0, SVG Export Plug-In . SVG Version: 6.00 Build 0) --> <svg xmlns="http://www.w3.org/2000/svg" xmlns:xlink="http://www.w3.org/1999/xlink" id="Слой_1" x="0px" y="0px" viewBox="0 0 1000 1000" style="enable-background:new 0 0 1000 1000;" xml:space="preserve"> <style type="text/css"> .st0{fill:#BAAA91;} .st1{fill:#FFFFFF;} </style> <circle class="st0" cx="501.5" cy="500.6" r="491.3"></circle> <g> <g> <g> <rect x="480.4" y="585" class="st1" width="42.2" height="14.1"></rect> </g> </g> <g> <g> <path class="st1" d="M473.4,507.7c0,1.8-7.5,7-21.1,7c-13.6,0-21.1-5.3-21.1-7h-14.1c0,12,15.1,21.1,35.2,21.1 c20,0,35.2-9.1,35.2-21.1H473.4z"></path> </g> </g> <g> <g> <path class="st1" d="M571.8,507.7c0,1.8-7.5,7-21.1,7s-21.1-5.3-21.1-7h-14.1c0,12,15.1,21.1,35.2,21.1s35.2-9.1,35.2-21.1H571.8 z"></path> </g> </g> <g> <g> <rect x="276.5" y="423.3" class="st1" width="21.1" height="14.1"></rect> </g> </g> <g> <g> <rect x="304.6" y="395.2" class="st1" width="14.1" height="14.1"></rect> </g> </g> <g> <g> <rect x="276.5" y="395.2" class="st1" width="14.1" height="14.1"></rect> </g> </g> <g> <g> <rect x="684.3" y="402.2" class="st1" width="14.1" height="14.1"></rect> </g> </g> <g> <g> <rect x="712.5" y="402.2" class="st1" width="14.1" height="14.1"></rect> </g> </g> <g> <g> <rect x="642.1" y="303.8" class="st1" width="14.1" height="14.1"></rect> </g> </g> <g> <g> <rect x="670.3" y="303.8" class="st1" width="14.1" height="14.1"></rect> </g> </g> <g> <g> <rect x="698.4" y="303.8" class="st1" width="14.1" height="14.1"></rect> </g> </g> <g> <g> <rect x="304.6" y="275.6" class="st1" width="14.1" height="14.1"></rect> </g> </g> <g> <g> <rect x="332.8" y="275.6" class="st1" width="14.1" height="14.1"></rect> </g> </g> <g> <g> <rect x="360.9" y="275.6" class="st1" width="14.1" height="14.1"></rect> </g> </g> <g> <g> <rect x="494.5" y="310.8" class="st1" width="14.1" height="14.1"></rect> </g> </g> <g> <g> <rect x="522.6" y="310.8" class="st1" width="14.1" height="14.1"></rect> </g> </g> <g> <g> <rect x="459.3" y="388.1" class="st1" width="14.1" height="14.1"></rect> </g> </g> <g> <g> <rect x="487.5" y="388.1" class="st1" width="14.1" height="14.1"></rect> </g> </g> <g> <g> <rect x="550.7" y="310.8" class="st1" width="14.1" height="14.1"></rect> </g> </g> <g> <g> <path class="st1" d="M724.5,713.6l-36.9-36.9c-9.3-9.3-21.7-14.4-34.8-14.4h-59.9c-19,0-34.4-15.2-35-34 c33.1-42,52.6-92.9,55.8-147.3l0.5-8.6h112.3v-14.1H615c0.8-14.6-1.2-28.8-5.6-42.2h60.9v-14.1h-66.5 c-4.9-10-11.4-19.4-19.3-27.8c-21.6-22.9-50.8-35.5-82.3-35.5c-27.9,0-54,9.9-74.6,28.1H311.7v14.1h102.5 c-10.2,12.6-17.5,26.9-21.5,42.2h-81v14.1H390c-0.9,7-1.2,14.1-0.8,21.3l1.3,22.4c3.2,53.9,22.4,104.4,55,146.1h-0.2 c0,19.4-15.8,35.2-35.2,35.2h-59.9c-13.1,0-25.5,5.1-34.8,14.4l-36.9,36.9c-1.3,1.3-2.1,3.1-2.1,5v7h14.1v-4.1l34.8-34.8 c6.6-6.6,15.5-10.3,24.9-10.3h59.9c22.2,0,41-14.8,47.1-35.1c6,6.7,12.3,13.1,19.1,19.2c1.3,1.2,3,1.8,4.7,1.8h42.2 c1.7,0,3.4-0.7,4.7-1.8c6.4-5.8,12.4-11.9,18.2-18.2c6.4,19.8,25,34.1,46.8,34.1h59.9c9.4,0,18.2,3.7,24.9,10.3l34.8,34.8v4.1 h14.1v-7C726.5,716.7,725.8,715,724.5,713.6z M520.5,648.3h-36.7c-47.3-43.9-75.4-103.5-79.2-168l-1.3-22.4 c-0.4-6.9-0.1-13.8,0.9-20.5h38.2l-9.1,9.1l9.9,9.9l26.1-26.1l-26.1-26.1l-9.9,9.9l9.1,9.1h-35c4.4-14.4,12-27.8,22.7-39.2 C449,364,474.6,353,502.1,353s53.2,11,72.1,31.1c5.3,5.6,9.7,11.7,13.5,18.1h-48.1l9.1-9.1l-9.9-9.9l-26.1,26.1l26.1,26.1 l9.9-9.9l-9.1-9.1h54.9c5.1,13,7.4,27.1,6.5,41.6l0,0.6h-33.3l9.1-9.1l-9.9-9.9l-26.1,26.1l26.1,26.1l9.9-9.9l-9.1-9.1h32.4 l-0.5,7.7C595.9,544.8,567.8,604.4,520.5,648.3z"></path> </g> </g> </g> </svg> 