<?xml version="1.0" encoding="UTF-8"?> <!-- Generator: Adobe Illustrator 21.0.0, SVG Export Plug-In . SVG Version: 6.00 Build 0) --> <svg xmlns="http://www.w3.org/2000/svg" xmlns:xlink="http://www.w3.org/1999/xlink" id="Слой_1" x="0px" y="0px" viewBox="0 0 1000 1000" style="enable-background:new 0 0 1000 1000;" xml:space="preserve"> <style type="text/css"> .st0{fill:#BAAA91;} .st1{fill:#FFFFFF;} </style> <circle class="st0" cx="501.2" cy="500.1" r="491.3"></circle> <g> <g> <g> <path class="st1" d="M716.4,478.6h-19.6v-225c0-5.4-4.4-9.8-9.8-9.8H579.5v-29.3c0-5.4-4.4-9.8-9.8-9.8h-137 c-5.4,0-9.8,4.4-9.8,9.8v29.3H315.4c-5.4,0-9.8,4.4-9.8,9.8v225H286c-5.4,0-9.8,4.4-9.8,9.8v39.1c0,5.4,4.4,9.8,9.8,9.8h170.8 L345.5,787.6l17.9,7.9l45.3-101.8h82.8v68.5H511v-68.5h82.8L639,795.6l17.9-7.9L545.6,537.3h170.8c5.4,0,9.8-4.4,9.8-9.8v-39.1 C726.2,482.9,721.8,478.6,716.4,478.6z M442.5,224.2h117.4v19.6H442.5V224.2z M325.1,263.3h107.6h137h107.6v215.2H325.1 C325.1,478.6,325.1,263.3,325.1,263.3z M491.4,674.2h-74.1l60.9-137h13.2V674.2z M585.1,674.2H511v-137h13.2L585.1,674.2z M706.7,517.7H295.8v-19.6h19.6h371.7h19.6V517.7z"></path> </g> </g> <g> <g> <rect x="559.9" y="439.4" class="st1" width="19.6" height="19.6"></rect> </g> </g> <g> <g> <rect x="599.1" y="439.4" class="st1" width="19.6" height="19.6"></rect> </g> </g> <g> <g> <rect x="638.2" y="439.4" class="st1" width="19.6" height="19.6"></rect> </g> </g> <g> <g> <path class="st1" d="M649.8,317.3c-26.7,9.8-49,27-70.6,43.7c-4.6,3.6-9.3,7.1-13.9,10.6c-15.1,11.3-28.8,21.2-43.9,28.5 c-10.4,5-26.1,12.6-36.2,9.2c-1.6-0.5-2.5-1.1-2.8-1.8c-2.1-6,8.7-22.8,12.3-28.3l5.4-8.5c8.5-13.4,18.1-28.6,19-47 c0.5-10.3-4.3-19.8-12.2-24.2c-11.4-6.3-27.9-3.8-50.7,7.7c-14.1,7.2-26.7,17.1-38.2,26.7c-28.8,24.1-51.3,48.2-68.9,73.6 l16.1,11.1c16.6-24,37.9-46.8,65.3-69.8c12.2-10.3,22.8-18.3,34.5-24.3c22.7-11.6,30.4-9.1,32.2-8.1c1.2,0.7,2.4,3.2,2.2,6.2 c-0.6,13.2-8.1,25-16,37.5l-5.3,8.3c-7.3,11.3-19.6,30.3-14.4,45.4c1.6,4.6,5.5,10.7,15,13.9c3.9,1.3,7.8,1.8,11.8,1.8 c14.2,0,28.7-7,39.1-12c16.6-8,31.2-18.5,47.1-30.4c4.7-3.5,9.4-7.2,14.1-10.8c20.4-15.7,41.5-32,65.4-40.8L649.8,317.3z"></path> </g> </g> </g> </svg> 