<?xml version="1.0" encoding="UTF-8"?> <!-- Generator: Adobe Illustrator 21.0.0, SVG Export Plug-In . SVG Version: 6.00 Build 0) --> <svg xmlns="http://www.w3.org/2000/svg" xmlns:xlink="http://www.w3.org/1999/xlink" id="Слой_1" x="0px" y="0px" viewBox="0 0 1000 1000" style="enable-background:new 0 0 1000 1000;" xml:space="preserve"> <style type="text/css"> .st0{fill:#BAAA91;} .st1{fill:#FFFFFF;} </style> <circle class="st0" cx="500.1" cy="501" r="491.3"></circle> <path class="st1" d="M282.6,553.5h105c2.7,0,5.2-1.4,6.5-3.8c1.3-2.3,1.3-5.2,0-7.5l-19.7-33.7h73.2V546c0,4.1,3.4,7.5,7.5,7.5h37.5 v68.1c-25.4,3.7-45,25.5-45,51.9c0,28.9,23.6,52.5,52.5,52.5c28.9,0,52.5-23.6,52.5-52.5c0-26.4-19.6-48.2-45-51.9v-68.1h37.5 c4.1,0,7.5-3.4,7.5-7.5v-37.5h68.1c3.7,25.4,25.5,45,51.9,45c28.9,0,52.5-23.6,52.5-52.5c0-20.9-12.3-38.9-30-47.4V396h-15v53.1 c-2.5-0.4-4.9-0.6-7.5-0.6c-2.5,0-5,0.2-7.5,0.6V396h-15v57.6c-15.5,7.4-26.9,22.2-29.4,39.9h-68.1V456c0-4.1-3.4-7.5-7.5-7.5h-37.5 v-68.1c25.4-3.7,45-25.5,45-51.9c0-28.9-23.6-52.5-52.5-52.5c-28.9,0-52.5,23.6-52.5,52.5c0,26.4,19.6,48.2,45,51.9v68.1h-37.5 c-4.1,0-7.5,3.4-7.5,7.5v37.5h-81.9l-24.1-41.3c-2.7-4.6-10.3-4.6-13,0l-52.5,90c-1.4,2.3-1.4,5.2,0,7.5 C277.4,552,279.9,553.5,282.6,553.5z M537.6,673.5c0,20.7-16.8,37.5-37.5,37.5c-20.7,0-37.5-16.8-37.5-37.5 c0-20.7,16.8-37.5,37.5-37.5C520.8,636,537.6,652.8,537.6,673.5z M672.6,463.5c20.7,0,37.5,16.8,37.5,37.5 c0,20.7-16.8,37.5-37.5,37.5c-20.7,0-37.5-16.8-37.5-37.5C635.1,480.3,651.9,463.5,672.6,463.5z M462.6,328.5 c0-20.7,16.8-37.5,37.5-37.5c20.7,0,37.5,16.8,37.5,37.5S520.8,366,500.1,366C479.4,366,462.6,349.1,462.6,328.5z M462.6,463.5h75 v75h-75V463.5z M335.1,470.8l39.4,67.6h-78.9L335.1,470.8z"></path> </svg> 