<?xml version="1.0" encoding="UTF-8"?> <!-- Generator: Adobe Illustrator 21.0.0, SVG Export Plug-In . SVG Version: 6.00 Build 0) --> <svg xmlns="http://www.w3.org/2000/svg" xmlns:xlink="http://www.w3.org/1999/xlink" id="Слой_1" x="0px" y="0px" viewBox="0 0 1000 1000" style="enable-background:new 0 0 1000 1000;" xml:space="preserve"> <style type="text/css"> .st0{fill:#BAAA91;} .st1{fill:#FFFFFF;} </style> <circle class="st0" cx="500.8" cy="499.4" r="491.3"></circle> <g> <g> <g> <path class="st1" d="M748.4,735.3l-40.7-40.6c61.7-68.3,56.3-173.7-12-235.4c-12.3-11.1-26.1-20.3-41.1-27.3 c41-43.5,39-112.1-4.5-153.1c-43.5-41-112.1-39-153.1,4.5c-18.8,19.9-29.3,46.2-29.5,73.6l-1.6-0.8l-4.1-1.8 c-1.8-0.8-3.5-1.5-5.3-2.3l-3.7-1.4c-2.3-0.9-4.8-1.8-7.2-2.5l-2-0.7c-3.2-0.9-6.3-1.8-9.4-2.4l-2.9-0.7 c-2.3-0.4-4.6-0.9-6.9-1.3l-3.4-0.5l-7-0.8h-3.1c-3.3,0-6.8,0-10.1,0c-82.8,0.4-149.7,67.9-149.3,150.7 C251.7,529,265,564,289,591.2l-35.8,35.8c-2.4,2.4-3.1,6-1.8,9.1c1.3,3.1,4.3,5.2,7.7,5.2h141.7c8.9,0,17.8-0.9,26.5-2.5 c23.6,66.4,86.4,110.8,156.8,110.8h158.3c3.4,0,6.4-2.1,7.7-5.2C751.5,741.2,750.8,737.7,748.4,735.3z M484.2,357.8 c0-50.6,41-91.7,91.6-91.7s91.7,41,91.7,91.6c0,25.6-10.7,50.1-29.6,67.5c-3.8-1.3-7.8-2.5-11.8-3.5l-3.2-0.8 c-3.4-0.8-6.8-1.5-10.3-2.2l-5.5-0.8c-3-0.4-5.9-0.8-8.9-1c-3-0.3-5.3,0-8.3-0.4s-4,0-6,0h-1.3c-4.6,0-9.1,0-13.6,0.7 c-4.5,0.7-7.2,0.9-10.7,1.4c-1.6,0-3.2,0-4.8,0.8c-3.8,0.7-7.5,1.6-11.1,2.5l-2.9,0.8l-5.2,1.3c-11.6-22.8-28.8-42.4-50-56.7 C484.2,364.1,484.1,361,484.2,357.8z M432.6,514.7c-1.1,2.3-2,4.7-3,7c-0.2,0.6-0.4,1.1-0.7,1.7l-1.8,4.9 c-0.8,2.3-1.6,4.5-2.3,6.8s-1.4,5-2,7.5c0,1.3-0.8,2.6-1,3.8v1.3c-0.4,1.8-0.7,3.5-1,5.3v1.3c0,1.3-0.6,2.7-0.8,4.1 c-0.2,1.4,0,3-0.5,4.5c-0.5,1.5-0.4,3.3-0.6,4.9c-0.2,1.7,0,1.8,0,2.7c-1.7,4-1.7,8.2-1.7,12.3c0,4.2,0,10.2,0.8,15.2 c0,1,0,2,0,3c0.5,4.7,1.2,9.3,2.1,13.9l0.8,3.6c0.7,1.3,0.9,2.8,1.3,4.2c-7.1,1.2-14.3,1.8-21.5,1.8H279.2l27.3-27.3 c3.3-3.2,3.3-8.5,0-11.8c0,0,0,0,0,0c-25.1-24.9-39.2-58.9-39.1-94.3c0-73.6,59.7-133.3,133.3-133.3c3.2,0,6.3,0,9.4,0h2.8 c2.2,0,4.3,0,6.5,0.7l3.1,0.5c2,0,4.1,0.7,6.1,1.2s2.1,0.5,3.1,0.8c1,0.2,4,0.9,5.9,1.5l2.9,0.9l6,2l2.4,0.9 c2.1,0.8,4.3,1.7,6.3,2.6l2,1c2.2,1,4.4,2.1,6.5,3.3l1.5,0.8c2.3,1.2,4.6,2.6,6.8,4c19.9,12.5,36.1,30.1,47,50.9l-3.4,1.6 c-2.6,1.2-5,2.3-7.5,3.7c-2.9,1.6-5.8,3.2-8.3,4.9l-3.5,2.1l-1.8,1.1c-2,1.3-4.1,2.7-6.1,4.2l-2.1,1.5l-3.3,2.5 c-2.3,1.8-4.5,3.5-6.7,5.3l-3.9,3.6l-3.1,2.8l-0.4,0.5c-2.3,2.1-4.4,4.4-6.5,6.7c-0.8,0.9-1.7,1.8-2.4,2.7l-1.8,1.9l-4.8,5.8 l-1.1,1.4l-2.7,3.6c-1.6,2.3-3.3,4.5-4.8,6.8l-2.6,4.8c-2.7,4.3-5.1,8.3-7.3,13.3c-0.5,0.9-1,1.8-1.4,2.8 C433.3,513.2,433,513.8,432.6,514.7z M584.2,732.8c-70.7,0-131.7-49.4-146.6-118.4c0-1.4-0.5-2.8-0.8-4.3c-0.6-3.2-1-6.3-1.4-9.5 l-0.5-4.3c-0.7-4.5-0.7-9-0.7-13.6c0-4.6,0-9,0.7-13.5c0-0.5,0-1,0-1.5c0-1.2,0-2.4,0-3.6c0-2.8,0.8-5.5,1.3-8.3 c0.4-2,0.8-4,1.3-5.9c0.5-1.9,1.1-4.3,1.7-6.5c0.6-2.2,0.8-3.3,1.3-4.9c0.5-1.7,1.1-3.1,1.6-4.7s1.3-3.8,2.1-5.7l2-4.8 c0.8-1.7,1.5-3.4,2.3-5.2c0.8-1.7,1.6-3.3,2.5-4.8c0.8-1.6,1.6-3.2,2.5-4.7c1-1.8,2-3.4,3.1-5.1l2.5-3.9c1.3-1.8,2.5-3.7,3.8-5.4 l2.3-3.2c1.5-1.9,3-3.8,4.6-5.7l2.1-2.3c1.8-2,3.6-4,5.6-6l1.4-1.4l6.7-6.2l0.8-0.6c10.9-9.4,23.1-17.1,36.2-23 c2-0.9,4-1.7,6.1-2.5l3.5-1.4h0.7c3.8-1.4,7.8-2.6,11.7-3.7l2.1-0.6c3.5-0.9,7.1-1.7,10.6-2.3l4-0.6c3.1-0.5,6.3-1,9.3-1.3h6.2 c6.7-0.5,13.5-0.5,20.3,0h0.6c3.8,0.4,7.6,1,11.4,1.6h2c4,0.8,8.3,1.7,11.9,2.8h1.1c4,1.2,8.3,2.5,11.9,3.9 c77.7,28.8,117.3,115.1,88.5,192.8c-7.5,20.2-19.2,38.5-34.5,53.8l0.7,0.3c-3.2,3.3-3.2,8.5,0,11.8l32.2,32.2L584.2,732.8 L584.2,732.8z"></path> </g> </g> <g> <g> <rect x="500.8" y="491.2" class="st1" width="91.7" height="16.7"></rect> </g> </g> <g> <g> <rect x="609.2" y="491.2" class="st1" width="58.3" height="16.7"></rect> </g> </g> <g> <g> <rect x="484.2" y="532.8" class="st1" width="58.3" height="16.7"></rect> </g> </g> <g> <g> <rect x="559.2" y="532.8" class="st1" width="133.3" height="16.7"></rect> </g> </g> <g> <g> <rect x="467.5" y="574.5" class="st1" width="41.7" height="16.7"></rect> </g> </g> <g> <g> <rect x="525.8" y="574.5" class="st1" width="75" height="16.7"></rect> </g> </g> <g> <g> <rect x="617.5" y="574.5" class="st1" width="91.7" height="16.7"></rect> </g> </g> <g> <g> <rect x="475.8" y="616.2" class="st1" width="183.3" height="16.7"></rect> </g> </g> <g> <g> <rect x="675.8" y="616.2" class="st1" width="25" height="16.7"></rect> </g> </g> <g> <g> <rect x="492.5" y="657.8" class="st1" width="75" height="16.7"></rect> </g> </g> <g> <g> <rect x="584.2" y="657.8" class="st1" width="91.7" height="16.7"></rect> </g> </g> <g> <g> <rect x="342.5" y="399.5" class="st1" width="91.7" height="16.7"></rect> </g> </g> <g> <g> <rect x="450.8" y="399.5" class="st1" width="33.3" height="16.7"></rect> </g> </g> <g> <g> <rect x="309.1" y="441.2" class="st1" width="141.7" height="16.7"></rect> </g> </g> <g> <g> <rect x="309.1" y="482.8" class="st1" width="41.7" height="16.7"></rect> </g> </g> <g> <g> <rect x="367.5" y="482.8" class="st1" width="58.3" height="16.7"></rect> </g> </g> <g> <g> <rect x="317.5" y="524.3" class="st1" width="83.3" height="16.7"></rect> </g> </g> <g> <g> <rect x="334.1" y="566.2" class="st1" width="58.3" height="16.7"></rect> </g> </g> <g> <g> <rect x="525.8" y="299.5" class="st1" width="66.7" height="16.7"></rect> </g> </g> <g> <g> <rect x="609.2" y="299.5" class="st1" width="25" height="16.7"></rect> </g> </g> <g> <g> <rect x="509.2" y="341.2" class="st1" width="125" height="16.7"></rect> </g> </g> <g> <g> <rect x="542.5" y="382.8" class="st1" width="91.7" height="16.7"></rect> </g> </g> </g> </svg> 