<?xml version="1.0" encoding="UTF-8"?> <!-- Generator: Adobe Illustrator 21.0.0, SVG Export Plug-In . SVG Version: 6.00 Build 0) --> <svg xmlns="http://www.w3.org/2000/svg" xmlns:xlink="http://www.w3.org/1999/xlink" id="Слой_1" x="0px" y="0px" viewBox="0 0 1000 1000" style="enable-background:new 0 0 1000 1000;" xml:space="preserve"> <style type="text/css"> .st0{fill:#BAAA91;} .st1{fill:#FFFFFF;} </style> <circle class="st0" cx="499.3" cy="501.9" r="491.3"></circle> <g> <path class="st1" d="M361.3,726.9h21.2c2,0,3.9-0.8,5.3-2.2l79.6-79.5c8.8-8.8,8.8-23,0-31.8c-4-4-9.3-6-14.7-6.3 c-0.2-5.4-2.3-10.8-6.5-15c-4-4-9.3-6-14.7-6.3c-0.2-5.4-2.3-10.8-6.5-14.9c-1.8-1.8-4-3.2-6.4-4.3l38.2-38.2 c8.8-8.8,8.8-23,0-31.8c-8.5-8.5-23.3-8.5-31.8,0l-67.1,67.1l-45.1,5c-1.7,0.2-3.3,0.9-4.5,2.2l-31.8,31.8 c-1.4,1.4-2.2,3.3-2.2,5.3v31.8c0,2,0.8,3.9,2.2,5.3l79.5,79.5C357.4,726.1,359.3,726.9,361.3,726.9L361.3,726.9z M289.3,611.1 l27.8-27.8l23.9-2.7l-16.7,16.7l10.6,10.6l100.8-100.8c2.9-2.8,7.8-2.8,10.6,0c2.9,2.9,2.9,7.7,0,10.6l-79.5,79.5l10.6,10.6 l26.5-26.5c2.8-2.8,7.8-2.8,10.6,0c1.4,1.4,2.2,3.3,2.2,5.3s-0.8,3.9-2.2,5.3l-26.5,26.5l10.6,10.6l26.5-26.5 c2.8-2.8,7.8-2.8,10.6,0c2.9,2.9,2.9,7.7,0,10.6L409,639.8l10.6,10.6l26.5-26.5c2.9-2.9,7.7-2.9,10.6,0c2.9,2.9,2.9,7.7,0,10.6 l-77.4,77.4h-15l-75.2-75.2V611.1z"></path> <path class="st1" d="M514.3,509.4c12.4,0,22.5-10.1,22.5-22.5V392l28.4-35.4c1.1-1.3,1.6-3,1.6-4.7v-45c0-2-0.8-3.9-2.2-5.3 l-22.5-22.5c-1.4-1.4-3.3-2.2-5.3-2.2H424.3c-2,0-3.9,0.8-5.3,2.2l-15,15c-1.4,1.4-2.2,3.3-2.2,5.3v112.5 c0,12.4,10.1,22.5,22.5,22.5c5.8,0,11-2.3,15-5.9c4,3.6,9.2,5.9,15,5.9c5.8,0,11-2.3,15-5.9c4,3.6,9.2,5.9,15,5.9 c2.6,0,5.1-0.5,7.5-1.4v53.9C491.8,499.3,501.9,509.4,514.3,509.4L514.3,509.4z M484.3,419.4c-4.1,0-7.5-3.4-7.5-7.5v-37.5h-15 v37.5c0,4.1-3.4,7.5-7.5,7.5c-4.1,0-7.5-3.4-7.5-7.5v-37.5h-15v37.5c0,4.1-3.4,7.5-7.5,7.5c-4.1,0-7.5-3.4-7.5-7.5V302.5l10.6-10.6 h106.3l18.1,18.1v39.3l-15,18.7v-23.6h-15v142.5c0,4.1-3.4,7.5-7.5,7.5c-4.1,0-7.5-3.4-7.5-7.5v-75v-37.5h-15v37.5 C491.8,416,488.4,419.4,484.3,419.4z"></path> <path class="st1" d="M642.5,533.8c-8.8-8.8-23.1-8.8-31.8,0c-4,4-6.2,9.2-6.5,14.8c-5.4,0.3-10.6,2.4-14.7,6.5 c-4,4-6.2,9.2-6.5,14.7c-5.4,0.3-10.6,2.4-14.7,6.5c-1.8,1.8-3.3,4-4.3,6.3l-38.1-38.1c-8.8-8.8-23-8.8-31.8,0 c-4.2,4.2-6.6,9.9-6.6,15.9c0,6,2.3,11.7,6.6,15.9l67.1,67.1l5,45.1c0.2,1.7,0.9,3.3,2.2,4.5l31.8,31.8c1.4,1.4,3.3,2.2,5.3,2.2 h31.8c2,0,3.9-0.8,5.3-2.2l79.5-79.5c1.4-1.4,2.2-3.3,2.2-5.3v-21.2c0-2-0.8-3.9-2.2-5.3L642.5,533.8z M709.3,636.7l-75.2,75.2 h-25.6l-27.8-27.8l-2.7-23.9l16.7,16.7l10.6-10.6L504.6,565.6c-1.4-1.4-2.2-3.3-2.2-5.3c0-2,0.8-3.9,2.2-5.3 c2.9-2.9,7.7-2.9,10.6,0l79.5,79.5l10.6-10.6l-26.5-26.5c-1.4-1.4-2.2-3.3-2.2-5.3c0-2,0.8-3.9,2.2-5.3c2.8-2.8,7.8-2.8,10.6,0 l26.5,26.5l10.6-10.6l-26.5-26.5c-1.4-1.4-2.2-3.3-2.2-5.3c0-2,0.8-3.9,2.2-5.3c2.9-2.9,7.7-2.9,10.6,0l26.5,26.5l10.6-10.6 L621.3,555c-2.9-2.9-2.9-7.7,0-10.6c2.9-2.9,7.7-2.9,10.6,0l77.4,77.4V636.7z"></path> <path class="st1" d="M336.5,408.8l13,7.5c2.3-4,4.8-8,7.4-11.8l-12.4-8.5C341.7,400.1,339,404.4,336.5,408.8z"></path> <path class="st1" d="M311.9,495.5l15,0.5c0.2-4.6,0.5-9.3,1-13.9l-14.9-1.7C312.4,485.3,312,490.4,311.9,495.5z"></path> <path class="st1" d="M315.3,465.4l14.7,2.9c0.9-4.6,2-9.1,3.3-13.6l-14.4-4.1C317.5,455.4,316.3,460.4,315.3,465.4z"></path> <path class="st1" d="M386.3,352.3c-4,3-8,6.3-11.7,9.6l10,11.2c3.5-3.1,7.1-6.1,10.8-8.9L386.3,352.3z"></path> <path class="st1" d="M333.9,551.1c-1.3-4.4-2.5-9-3.4-13.5l-14.7,3.1c1,4.9,2.3,9.9,3.7,14.7L333.9,551.1z"></path> <path class="st1" d="M312,510.6c0.2,5,0.7,10.1,1.3,15.1l14.9-1.9c-0.6-4.6-1-9.3-1.2-13.9L312,510.6z"></path> <path class="st1" d="M323.6,436.2l14,5.3c1.6-4.3,3.4-8.6,5.4-12.9l-13.6-6.4C327.3,426.8,325.4,431.5,323.6,436.2z"></path> <path class="st1" d="M374.5,382.8l-10.8-10.4c-3.5,3.6-6.9,7.5-10,11.4l11.6,9.4C368.2,389.6,371.3,386.1,374.5,382.8L374.5,382.8z "></path> <path class="st1" d="M548.8,667.2c-4.3,1.3-8.8,2.4-13.2,3.4l3.1,14.7c4.8-1,9.7-2.3,14.4-3.7L548.8,667.2z"></path> <path class="st1" d="M522.1,672.9c-4.5,0.6-9.1,1-13.6,1.3l0.8,15c4.9-0.3,9.9-0.7,14.8-1.4L522.1,672.9z"></path> <path class="st1" d="M450.5,683c4.8,1.3,9.6,2.4,14.5,3.3l2.7-14.8c-4.4-0.8-8.9-1.8-13.3-3L450.5,683z"></path> <path class="st1" d="M494.5,689.3l0.4-15c-4.5-0.1-9.1-0.4-13.6-0.9l-1.6,14.9C484.5,688.9,489.5,689.2,494.5,689.3z"></path> <path class="st1" d="M665.9,546.5l14.5,3.9c1.3-4.9,2.4-9.8,3.3-14.8l-14.8-2.7C668.2,537.5,667.1,542,665.9,546.5z"></path> <path class="st1" d="M582.9,334l-6.7,13.4c4.1,2.1,8.2,4.3,12.2,6.7l7.8-12.8C591.8,338.7,587.4,336.3,582.9,334z"></path> <path class="st1" d="M664,450.4c1.4,4.4,2.6,8.9,3.6,13.4l14.6-3.3c-1.1-4.9-2.4-9.8-3.9-14.6L664,450.4z"></path> <path class="st1" d="M670.1,477.5c0.6,4.5,1.1,9.2,1.4,13.8l15-0.9c-0.3-5-0.8-10.1-1.5-15L670.1,477.5z"></path> <path class="st1" d="M686.7,505.6l-15-0.3c-0.1,4.6-0.4,9.3-0.8,13.9l14.9,1.5C686.3,515.7,686.6,510.6,686.7,505.6L686.7,505.6z"></path> <path class="st1" d="M620.6,359c-3.8-3.2-7.8-6.4-11.9-9.3l-8.8,12.2c3.8,2.7,7.4,5.6,10.9,8.6L620.6,359z"></path> <path class="st1" d="M621.1,379.8c3.3,3.3,6.5,6.7,9.4,10.2l11.4-9.7c-3.2-3.8-6.7-7.5-10.3-11.1L621.1,379.8z"></path> <path class="st1" d="M653.6,424.7c2.1,4.1,4,8.4,5.7,12.7l13.9-5.6c-1.9-4.7-4-9.3-6.2-13.8L653.6,424.7z"></path> <path class="st1" d="M639.2,401c2.7,3.7,5.3,7.6,7.7,11.6l12.8-7.8c-2.6-4.3-5.4-8.5-8.3-12.6L639.2,401z"></path> </g> </svg> 