<svg width="2184pt" height="695pt" version="1.0" viewBox="0 0 2184 695" xmlns="http://www.w3.org/2000/svg">
 <g transform="translate(0 695) scale(.1 -.1)">
  <path d="m11 6081c-14-25-14-67-1-92 10-18 23-19 180-19h170v-1445-1445h-170c-157 0-170-1-180-19-16-30-12-76 8-94 17-16 89-17 828-17 445 0 878 5 963 10 658 40 1069 279 1182 686 30 107 30 265 0 379-76 288-297 521-588 621-111 38-248 64-334 64-42 0-59 4-59 13s39 20 127 35c357 59 582 205 667 434 34 90 48 209 36 302-39 310-289 506-742 582-92 16-208 18-1090 21-976 4-987 4-997-16zm1699-148c112-55 197-164 247-318 37-116 44-322 14-447-37-156-116-281-218-346-84-53-135-62-350-62h-193v606 605l436-6 64-32zm-37-1318c230-49 389-271 438-614 15-105 6-363-15-449-58-232-174-384-338-442-56-20-87-24-271-28-114-2-224-1-243 2l-34 7v769 770h198c132 0 219-5 265-15z"/>
  <g fill="#d2232a">
   <path d="m6723 6934c-606-73-1178-341-1621-758-45-43-85-89-88-102-9-37 20-74 57-74 25 0 48 15 115 79 416 394 920 636 1514 728 178 27 586 25 779-5 558-87 1024-311 1458-701 101-91 124-102 164-81 14 8 19 21 19 49 0 35-7 44-87 118-219 199-441 352-688 473-306 150-598 236-931 275-160 19-534 18-691-1z"/>
   <path d="m6791 6134c-423-58-829-251-1128-538-89-84-102-116-65-149s68-22 150 56c372 352 904 550 1409 523 470-25 890-200 1236-515 83-76 112-86 147-51 11 11 20 29 20 40 0 26-62 93-161 175-303 253-696 420-1094 465-125 14-390 11-514-6z"/>
   <path d="m7018 5249c-590-62-996-502-1025-1110-11-221 30-419 127-614 166-336 452-539 844-602 134-21 389-13 491 15 241 67 414 201 511 396 43 88 73 196 74 264 0 26-5 34-27 43-36 14-72 3-82-24-5-12-16-53-25-92-65-277-278-456-593-495-203-26-342 31-412 169-27 52-58 167-71 266-17 121-24 878-11 1083 23 347 85 497 236 563 97 43 300 36 441-15 60-22 159-75 152-81-2-2-43-10-91-18-113-20-184-55-241-118-61-67-81-130-80-244 1-115 27-185 94-258 187-205 552-143 651 111 33 84 32 241-2 332-120 316-486 479-961 429z"/>
   <path d="m8370 2634c-269-241-607-405-965-470-139-25-443-30-589-10-389 55-740 216-1034 475-98 86-132 99-165 63-31-34-21-63 44-124 302-288 712-480 1149-539 119-16 418-16 530 0 321 46 621 157 870 321 154 102 337 258 346 296 10 38-20 74-59 73-26 0-51-17-127-85z"/>
  </g>
  <path d="m4315 5235c-286-53-537-204-698-420-151-203-227-443-227-721 0-306 100-558 308-776 410-429 1102-534 1559-236 192 125 321 311 340 488 6 57 5 59-21 66-54 13-74-1-86-64-19-90-47-154-100-230-91-130-256-237-447-289-85-24-117-27-243-28-139 0-147 1-208 29-118 55-200 173-247 360-35 137-45 221-52 424l-6 182h731 732l6 24c7 30-12 214-32 309-58 276-206 516-419 676-95 71-268 155-390 187-127 33-371 43-500 19zm363-106c100-43 171-129 219-265l28-79 3-332 3-333h-376-377l5 328c4 349 7 370 60 486 32 69 114 158 172 186 87 42 179 45 263 9z"/>
  <path d="m9766 5235c-166-35-307-103-418-203-61-55-72-44-78 73l-5 100-479 3c-377 2-481 0-488-10-12-20-10-72 4-86 8-8 53-12 135-12h123v-1075-1075l378 2 377 3 3 957 2 956 55 54c71 67 149 120 222 149 47 19 78 23 164 24 99 0 108-2 148-28 56-37 97-103 110-181 7-42 11-366 11-999v-937h380 380v949 949l78 69c150 136 248 183 374 183 117-1 182-42 230-145l23-50 5-800c5-734 7-804 23-845 64-160 202-275 397-327 88-23 281-23 370 0 165 44 302 145 364 267 35 71 63 193 51 230-8 25-49 36-81 21-19-8-24-18-24-49 0-70-29-144-75-189-37-38-48-43-87-43-58 0-105 31-138 90l-25 45-6 650c-5 417-11 668-18 700-72 321-281 516-626 580-132 25-329 17-448-19-155-46-293-127-418-245-65-62-74-68-85-53-78 110-157 177-279 238-134 66-220 85-405 90-108 2-176-1-224-11z"/>
  <path d="m21011 5234c-79-21-165-71-212-121-79-86-116-203-149-477-30-245-54-329-112-383-40-38-72-43-269-43h-189v490c0 474-1 490-19 500-30 15-993 14-1009-2-20-20-15-76 7-88 11-5 72-10 135-10h116l2-1072 3-1073 383-3 382-2v576 576l173-4c160-3 175-5 210-26 45-29 85-94 104-171 7-31 18-150 23-266 7-163 14-227 30-285 57-202 190-343 384-407 73-24 95-27 221-26 159 0 247 19 356 73 72 37 158 114 193 174 35 59 56 140 56 213 0 59-1 63-26 69-14 4-36 2-48-4-20-9-24-20-29-79-12-122-76-212-162-229-53-10-119 25-154 82-38 59-47 109-60 324-12 205-29 289-75 385-57 120-134 180-274 216-70 17-106 20-247 17-91-2-165-2-165 0 0 1 16 17 36 34 74 65 106 169 149 481 29 207 31 217 51 217 10 0 14-13 14-44 0-24 9-72 19-105 75-241 384-334 606-181 137 94 186 312 106 474-49 100-138 166-268 200-75 20-219 20-292 0z"/>
  <path d="m12862 5198c-17-17-15-64 4-82 12-13 40-16 135-16h119v-1075-1075h380 380v620 620h340 340v-392c0-216 5-422 10-458 30-192 175-339 395-402 102-29 286-31 385-5 158 42 302 142 363 255 54 99 75 242 38 262-54 28-87-1-93-82-16-204-211-272-297-103l-26 49-3 931-2 930-21 18c-19 15-53 17-385 17h-364v-460-460h-340-340v448c0 335-3 451-12 460-17 17-989 17-1006 0z"/>
  <path d="m15920 5191c-14-28-12-57 6-75 12-12 38-16 115-16h99v-737c1-797 2-820 54-958 70-183 230-341 427-421 123-50 222-68 379-68 177 0 276 22 425 94 105 51 201 128 276 223l38 47 26-52c77-155 206-255 385-299 78-19 250-17 330 4 224 59 379 216 411 414 14 84 6 103-45 103-41 0-56-16-56-59 0-215-233-304-321-124l-24 48-10 1890-382 3-383 2v-863c0-926 1-912-51-1022-32-69-111-150-177-182-50-25-68-28-152-28-116 0-163 19-245 96-61 58-106 140-124 227-8 36-11 320-11 900 0 646-3 851-12 860s-131 12-490 12c-462 0-478-1-488-19z"/>
  <path d="m5355 1259c-177-22-314-139-375-319-24-72-29-209-10-280 31-116 126-243 217-293 99-53 235-71 355-46 80 17 182 74 234 132 41 46 90 125 82 132-18 15-92 45-97 38-4-4-24-31-44-60-67-93-174-144-305-144-171 0-313 130-329 304l-6 57h407 406v43c-1 153-107 319-251 391-62 31-97 40-194 50-16 1-57-1-90-5zm228-144c71-35 139-108 161-172 9-26 16-50 16-55 0-4-151-8-336-8h-335l7 23c32 103 108 192 195 226 81 32 212 26 292-14z"/>
  <path d="m7223 1260c-51-11-147-57-169-81-16-17-15-21 10-54 15-19 30-35 33-35s35 15 71 32c77 38 154 43 210 14 65-34 91-146 48-211-24-37-87-65-146-65h-50v-50-50h53c66 0 133-32 164-79 32-47 32-135 1-181-39-57-71-74-147-78-80-5-123 7-191 53l-49 33-31-40-32-39 23-25c13-14 53-39 88-57 62-30 71-32 181-32 135 0 171 14 238 90 110 125 91 317-39 398l-49 30 39 24c97 57 110 222 26 320-58 68-180 104-282 83z"/>
  <path d="m9132 1259c-178-22-338-169-387-354-43-166 5-337 129-461 93-92 193-134 323-134 140 0 248 43 338 134 126 128 169 281 129 456-39 172-205 335-362 355-90 11-107 11-170 4zm221-142c68-34 140-110 175-185 34-73 38-198 8-278-57-153-195-243-356-232-129 10-235 81-292 196-30 61-33 75-33 162 0 83 3 102 28 155 44 95 128 171 220 201 67 22 184 13 250-19z"/>
  <path d="m12177 1259c-196-22-364-189-398-398-41-246 121-490 359-540 261-55 501 92 567 346 56 213-51 449-247 548-61 30-88 37-188 49-14 1-56-1-93-5zm205-136c54-24 131-92 164-144 83-131 67-326-37-443-124-141-357-154-502-27-47 42-104 155-112 226-9 65 8 162 36 217 40 79 131 158 213 184 58 20 180 12 238-13z"/>
  <path d="m13795 1259c-321-39-504-390-359-687 82-167 236-262 427-262 123 0 227 41 313 122 107 101 154 209 154 353 0 297-240 510-535 474zm205-141c70-31 141-102 177-176 25-51 28-67 28-162 0-98-2-109-32-165-60-115-161-184-284-193-86-6-156 11-222 55-105 70-160 176-160 309 0 70 4 91 30 146 49 104 115 165 221 205 57 21 176 12 242-19z"/>
  <path d="m15340 1260c-102-14-198-65-264-142l-36-42v82 82h-60-60v-620-620h60 60v241 242l48-45c92-86 196-128 317-128 131 0 247 52 340 152 88 94 124 191 125 329 0 183-98 341-262 424-61 30-88 37-188 49-14 1-50-1-80-4zm212-148c77-38 130-92 167-171 23-49 26-69 26-156 0-88-3-107-27-157-33-71-106-146-173-177-183-86-414 3-487 188-34 86-31 216 5 296 16 33 47 79 70 103 83 85 152 113 272 109 68-2 91-7 147-35z"/>
  <path d="m19290 1258c-129-15-276-120-343-245-39-73-60-181-52-266 38-398 494-579 783-310 25 24 47 43 49 43s3-34 3-75v-75h55 55v455 455h-55-55v-82l-1-83-37 42c-99 112-237 161-402 141zm232-137c70-34 130-92 169-163 33-61 34-67 34-173 0-100-2-115-28-167-17-34-50-77-82-107-180-164-459-106-567 117-29 60-33 76-33 157 0 76 4 99 27 147 45 97 129 174 221 204 64 21 200 13 259-15z"/>
  <path d="m2126 791c-113-248-206-453-206-456s28-5 62-3l62 3 149 328c83 180 151 326 153 325 1-2 70-149 152-328l149-325 63-3c53-3 62-1 57 12-36 94-415 896-423 896-6 0-104-202-218-449z"/>
  <path d="m2910 785c0-252 4-455 9-455s154 149 331 330c177 182 326 330 331 330s9-145 9-330v-330h55 55v457 458l-670-670v333 332h-60-60v-455z"/>
  <path d="m3920 785v-455h425 425v-70-70h55 55v125 125h-95-95v400 400h-60-60v-400-400h-265-265v400 400h-60-60v-455z"/>
  <path d="m6100 785v-455h55 55v220 220h265 265v-220-220h60 60v455 455h-60-60v-180-180h-265-265v180 180h-55-55v-455z"/>
  <path d="m7760 785c0-262 4-455 9-455s155 149 334 330c179 182 328 330 331 330s6-148 6-330v-330h60 60v455c0 250-3 455-7 455-5 0-158-150-340-332l-333-333v333 332h-60-60v-455z"/>
  <path d="m9850 785v-455h60 60v220 220h265 265v-220-220h60 60v455 455h-60-60v-180-180h-265-265v180 180h-60-60v-455z"/>
  <path d="m10830 785v-455h60 60v220 220h265 265v-220-220h60 60v455 455h-60-60v-180-180h-265-265v180 180h-60-60v-455z"/>
  <path d="m12892 788 3-453 58-3 57-3v406 405h175 175v50 50h-235-235l2-452z"/>
  <path d="m16052 788 3-453h205c193 1 208 2 258 24 97 43 151 131 152 244 0 74-14 118-56 172-58 77-149 105-336 105h-108v180 180h-60-60l2-452zm382-29c51-14 90-56 106-113 18-64 6-112-38-157-45-45-103-59-237-59h-95v170 170h113c61 0 130-5 151-11z"/>
  <path d="m16840 785v-455h55 55v455 455h-55-55v-455z"/>
  <path d="m17160 785v-455h60 60v220 220h265 265v-220-220h60 60v455 455h-60-60v-180-180h-265-265v180 180h-60-60v-455z"/>
  <path d="m18140 785v-455h60 60v193c0 279-16 278 245 17l210-210 85 1h85l-247 242c-137 134-248 247-247 252 0 6 101 100 224 210l223 200-79 3-80 3-414-378-3 188-2 189h-60-60v-455z"/>
 </g>
</svg>
